<svg xmlns="http://www.w3.org/2000/svg" width="62" height="63" fill="none" viewBox="0 0 62 63">
  <path fill="#0044EB" d="M55.906 18.994c3.36 0 6.094-2.774 6.094-6.184V6.184C62 2.774 59.266 0 55.906 0H6.095C2.734 0 0 2.774 0 6.184v6.626c0 3.41 2.734 6.184 6.095 6.184h23.271v15.599c-2.378.608-4.253 2.511-4.853 4.924H7.532c-.902 0-1.634.742-1.634 1.658v9.96H2.18c-.902 0-1.634.742-1.634 1.657v8.55c0 .916.732 1.658 1.634 1.658h10.706c.902 0 1.633-.742 1.633-1.658v-8.55c0-.915-.731-1.657-1.633-1.657h-3.72v-8.302h15.348c.6 2.413 2.475 4.316 4.853 4.924v3.377h-3.719c-.902 0-1.634.743-1.634 1.658v8.55c0 .916.732 1.658 1.634 1.658h10.706c.902 0 1.633-.742 1.633-1.658v-8.55c0-.915-.731-1.657-1.633-1.657h-3.72v-3.378c2.379-.608 4.255-2.511 4.854-4.924h15.347v8.302h-3.719c-.902 0-1.634.742-1.634 1.657v8.55c0 .916.732 1.658 1.634 1.658h10.706c.902 0 1.634-.742 1.634-1.658v-8.55c0-.915-.732-1.657-1.634-1.657H56.1v-9.96c0-.916-.73-1.658-1.633-1.658H37.487c-.6-2.413-2.475-4.316-4.853-4.924V18.994h23.272zM11.25 59.684H3.813V54.45h7.438v5.234zm23.468 0H27.28V54.45h7.438v5.234zm23.468 0h-7.438V54.45h7.438v5.234zm-23.765-18.51c0 1.915-1.535 3.473-3.422 3.473-1.887 0-3.422-1.558-3.422-3.472 0-1.915 1.535-3.472 3.422-3.472 1.887 0 3.422 1.557 3.422 3.472zM3.268 12.81V6.184c0-1.581 1.268-2.868 2.827-2.868h49.81c1.56 0 2.827 1.287 2.827 2.868v6.626c0 1.582-1.268 2.868-2.826 2.868H6.095c-1.56 0-2.827-1.286-2.827-2.868zm14.274-3.313c0 .915-.732 1.658-1.634 1.658H8.474A1.646 1.646 0 016.84 9.497c0-.916.731-1.658 1.634-1.658h7.434c.902 0 1.634.742 1.634 1.658zm18.81 0c0 .915-.732 1.658-1.635 1.658h-7.434a1.646 1.646 0 01-1.634-1.658c0-.916.731-1.658 1.634-1.658h7.434c.903 0 1.634.742 1.634 1.658zm18.808 0c0 .915-.731 1.658-1.633 1.658h-7.435a1.646 1.646 0 01-1.634-1.658c0-.916.732-1.658 1.634-1.658h7.434c.903 0 1.634.742 1.634 1.658z"/>
</svg>