<svg xmlns="http://www.w3.org/2000/svg" width="37" height="39" fill="none" viewBox="0 0 37 39">
  <path fill="#050C12" stroke="#050C12" strokeWidth="2" d="M27.406 28.444c.245-2.046.172-2.346 1.696-2.014l.386.034c1.172.053 2.705-.189 3.605-.607 1.939-.9 3.088-2.401 1.177-2.006-4.36.899-4.66-.577-4.66-.577 4.604-6.831 6.528-15.502 4.867-17.624-4.53-5.79-12.373-3.052-12.504-2.98l-.042.007a15.533 15.533 0 00-2.909-.303c-1.973-.033-3.47.517-4.605 1.378 0 0-13.991-5.764-13.34 7.25.138 2.768 3.968 20.946 8.535 15.455 1.67-2.008 3.283-3.705 3.283-3.705.8.532 1.76.804 2.766.706l.078-.066c-.025.249-.014.493.03.782-1.176 1.314-.83 1.545-3.182 2.03-2.38.49-.982 1.363-.07 1.591 1.107.277 3.668.67 5.398-1.753l-.069.277c.462.369.43 2.654.496 4.286.065 1.633.175 3.156.508 4.054.332.898.725 3.212 3.816 2.55 2.584-.555 4.56-1.352 4.74-8.765z"/>
  <path fill="#336791" d="M34.27 23.85c-4.36.9-4.66-.577-4.66-.577 4.604-6.83 6.529-15.502 4.868-17.624-4.53-5.789-12.374-3.051-12.505-2.98l-.042.008a15.55 15.55 0 00-2.909-.304c-1.973-.032-3.47.518-4.605 1.379 0 0-13.991-5.764-13.34 7.249.138 2.768 3.968 20.947 8.535 15.456 1.67-2.008 3.283-3.705 3.283-3.705.8.532 1.76.803 2.766.706l.078-.066c-.025.249-.014.493.03.781-1.176 1.315-.83 1.546-3.182 2.03-2.38.49-.982 1.364-.07 1.592 1.107.277 3.668.669 5.398-1.753l-.069.276c.461.37.785 2.402.73 4.245-.054 1.843-.09 3.108.273 4.096.364.988.726 3.212 3.818 2.549 2.584-.554 3.923-1.989 4.109-4.382.132-1.702.431-1.45.45-2.971l.24-.72c.277-2.307.044-3.052 1.636-2.705l.387.034c1.171.053 2.705-.189 3.605-.607 1.938-.9 3.087-2.401 1.176-2.007z"/>
  <path stroke="#050C12" strokeLinecap="round" strokeLinejoin="round" strokeWidth="2" d="M18.102 25.173c-.12 4.292.03 8.614.45 9.664.42 1.05 1.32 3.093 4.412 2.431 2.584-.554 3.524-1.626 3.932-3.992.3-1.74.88-6.575.954-7.565M14.395 3.656s-14-5.722-13.35 7.29c.14 2.77 3.969 20.948 8.536 15.457 1.67-2.008 3.179-3.583 3.179-3.583m9.198-20.208c-.485.152 7.788-3.024 12.49 2.983 1.66 2.122-.264 10.793-4.868 17.625"/>
  <path stroke="#fff" strokeLinecap="round" strokeLinejoin="bevel" strokeWidth="2" d="M29.58 23.22s.3 1.476 4.66.576c1.911-.394.761 1.108-1.176 2.008-1.59.738-5.155.927-5.214-.093-.15-2.631 1.877-1.832 1.73-2.491zm0 0c-.132-.594-1.038-1.177-1.637-2.63-.524-1.268-7.177-10.995 1.845-9.55.33-.07-2.353-8.582-10.797-8.72-8.44-.14-8.164 10.38-8.164 10.38"/>
  <path stroke="#fff" strokeLinecap="round" strokeLinejoin="round" strokeWidth="2" d="M15.739 24.12c-1.177 1.314-.83 1.545-3.183 2.03-2.38.49-.982 1.363-.07 1.591 1.107.277 3.668.67 5.398-1.753.527-.738-.003-1.915-.727-2.215-.35-.144-.817-.326-1.418.346z"/>
  <path stroke="#fff" strokeLinecap="round" strokeLinejoin="round" strokeWidth="2" d="M15.662 24.096c-.119-.773.254-1.692.653-2.768.6-1.615 1.985-3.23.877-8.351-.825-3.816-6.362-.794-6.365-.277-.004.518.25 2.623-.093 5.075-.447 3.2 2.036 5.906 4.896 5.629"/>
  <path fill="#fff" stroke="#fff" strokeWidth="2" d="M14.344 12.623c-.025.177.324.648.778.711.454.064.842-.305.867-.482.025-.176-.323-.371-.778-.434-.454-.064-.843.029-.867.205h0zM28.163 12.262c.025.177-.323.649-.778.712-.454.063-.842-.306-.867-.482-.024-.177.324-.372.778-.435s.843.03.867.205v0z"/>
  <path stroke="#fff" strokeLinecap="round" strokeLinejoin="round" strokeWidth="2" d="M29.788 11.04c.074 1.386-.3 2.33-.346 3.806-.07 2.145 1.023 4.6-.623 7.059"/>
</svg>