<svg xmlns="http://www.w3.org/2000/svg" width="32" height="32" fill="none" viewBox="0 0 32 32">
  <path stroke="#fff" strokeLinecap="round" strokeLinejoin="round" strokeWidth="1.5" d="M16 31c8.284 0 15-6.716 15-15 0-8.284-6.716-15-15-15C7.716 1 1 7.716 1 16c0 8.284 6.716 15 15 15z"/>
  <path stroke="#fff" strokeLinecap="round" strokeLinejoin="round" strokeWidth="1.5" d="M10 2.5h1.5a42.635 42.635 0 000 27H10M20.5 2.5a42.635 42.635 0 010 27"/>
  <path stroke="#fff" strokeLinecap="round" strokeLinejoin="round" strokeWidth="1.5" d="M2.5 22v-1.5a42.635 42.635 0 0027 0V22M2.5 11.5a42.635 42.635 0 0127 0"/>
</svg>