<svg xmlns="http://www.w3.org/2000/svg" width="62" height="62" fill="none" viewBox="0 0 62 62">
  <path fill="#0044EB" d="M36.13 24.646l-7.468 14.74a1.631 1.631 0 11-2.91-1.476l7.467-14.739a1.632 1.632 0 012.911 1.475zm4.608 2.842a1.632 1.632 0 00-2.307 2.308l3.57 3.57-3.57 3.572a1.631 1.631 0 102.307 2.307l4.725-4.725a1.631 1.631 0 000-2.307l-4.725-4.725zm-17.169-5.29a1.632 1.632 0 00-2.307 0l-4.725 4.725a1.631 1.631 0 000 2.308l4.725 4.724a1.627 1.627 0 002.307 0 1.632 1.632 0 000-2.307l-3.571-3.571 3.571-3.571a1.632 1.632 0 000-2.308zm27.783 10.434v9.514h9.016a1.632 1.632 0 010 3.263h-9.195a7.597 7.597 0 01-5.765 5.764v9.195a1.632 1.632 0 01-3.263 0v-9.016h-9.513v9.016a1.632 1.632 0 01-3.264 0v-9.016h-9.513v9.016a1.632 1.632 0 01-3.264 0v-9.195a7.597 7.597 0 01-5.764-5.765H1.632a1.632 1.632 0 010-3.263h9.016v-9.513H1.632a1.632 1.632 0 010-3.264h9.016v-9.513H1.632a1.632 1.632 0 010-3.264h9.195a7.597 7.597 0 015.764-5.764V1.632a1.632 1.632 0 013.264 0v9.016h9.513V1.632a1.632 1.632 0 013.264 0v9.016h9.514V1.632a1.632 1.632 0 013.263 0v9.195a7.597 7.597 0 015.764 5.764h9.195a1.632 1.632 0 010 3.264h-9.016v9.513h9.016a1.632 1.632 0 010 3.264h-9.016zm-3.263 11.145V18.223a4.317 4.317 0 00-4.312-4.312H18.223a4.317 4.317 0 00-4.312 4.312v25.554a4.316 4.316 0 004.312 4.312h25.554a4.316 4.316 0 004.312-4.312z" />
</svg>