<svg xmlns="http://www.w3.org/2000/svg" width="47" height="47" fill="none" viewBox="0 0 47 47">
  <g clipPath="url(#clip0_748_1160)">
    <path fill="#FFC107" d="M44.758.321A.983.983 0 0044.032 0H2.907a.976.976 0 00-.974 1.077L5.85 40.244c.039.384.297.709.664.832l17.625 5.875a.988.988 0 00.654-.014l15.666-5.875a.972.972 0 00.629-.818l3.917-39.167a.976.976 0 00-.247-.756z"/>
    <path fill="#050C12" d="M24.448 47c-.106 0-.208-.018-.31-.05L6.515 41.077a.98.98 0 01-.664-.832L1.933 1.077A.976.976 0 012.907 0h41.125a.973.973 0 01.973 1.077l-3.917 39.167a.978.978 0 01-.629.818l-15.666 5.875a.988.988 0 01-.345.063zM7.734 39.417l16.695 5.566 14.771-5.54 3.748-37.485H3.99l3.744 37.46z"/>
    <path fill="#050C12" d="M26.407 36.23a.986.986 0 01-.93-.67.983.983 0 01.618-1.24l5.325-1.775 1.647-9.045h-6.66a.98.98 0 01-.98-.98V10.77a.98.98 0 01.98-.978h9.791a.979.979 0 01.952 1.216l-.979 3.917a.978.978 0 11-1.9-.474l.672-2.701h-7.557v9.792h6.854c.29 0 .566.127.752.352a.975.975 0 01.212.803l-1.959 10.77a.982.982 0 01-.654.755l-5.875 1.958a.996.996 0 01-.309.05zM22.49 36.23a.916.916 0 01-.27-.04l-6.854-1.958a.98.98 0 01-.692-.75l-.979-4.896a.976.976 0 01.77-1.152c.503-.111 1.043.235 1.151.77l.862 4.308 5.033 1.44V11.75H10.74a.98.98 0 010-1.958h11.75c.54 0 .98.438.98.979V35.25a.973.973 0 01-.39.781.972.972 0 01-.59.198z"/>
  </g>
  <defs>
    <clipPath id="clip0_748_1160">
      <path fill="#fff" d="M0 0H47V47H0z"/>
    </clipPath>
  </defs>
</svg>