<svg xmlns="http://www.w3.org/2000/svg" width="58" height="56" fill="none" viewBox="0 0 58 56">
  <path fill="#0044EB" d="M52.224.881H5.776A5.542 5.542 0 00.24 6.417V37.54a5.542 5.542 0 005.536 5.535h13.08l-2.021 10.237a1.514 1.514 0 001.485 1.807h21.363a1.514 1.514 0 001.465-1.896l-2.004-10.148h13.08a5.542 5.542 0 005.536-5.535V6.417A5.542 5.542 0 0052.224.88zM37.84 52.091H20.16l1.78-9.016h14.117l1.78 9.017zM54.732 37.54a2.511 2.511 0 01-2.508 2.508H5.776a2.511 2.511 0 01-2.508-2.508V6.417a2.511 2.511 0 012.508-2.508h46.448a2.511 2.511 0 012.508 2.508V37.54zm-5.02-29.822H8.288c-.836 0-1.514.678-1.514 1.514v20.645c0 .836.678 1.514 1.514 1.514h41.424c.836 0 1.514-.678 1.514-1.514V9.232c0-.836-.678-1.514-1.514-1.514zM48.2 28.363H9.802V10.746h38.397v17.617zm-14.776 6.742c0 .836-.678 1.514-1.514 1.514h-5.818a1.514 1.514 0 010-3.028h5.818c.836 0 1.514.678 1.514 1.514zm14.339 0c0 .836-.678 1.514-1.514 1.514H40.43a1.514 1.514 0 010-3.028h5.818c.836 0 1.514.678 1.514 1.514z"/>
</svg>