<svg xmlns="http://www.w3.org/2000/svg" width="50" height="52" fill="none" viewBox="0 0 50 52">
  <g clipPath="url(#clip0_748_1302)">
    <path fill="#FF2D20" d="M49.883 11.864c.018.069.028.14.028.211V23.17a.813.813 0 01-.404.702l-9.257 5.36v10.626c0 .29-.153.556-.402.702L20.526 51.748c-.044.025-.093.041-.141.058-.018.007-.035.018-.054.023a.804.804 0 01-.412 0c-.023-.006-.043-.019-.064-.027-.044-.016-.09-.03-.132-.054L.404 40.559A.808.808 0 010 39.857V6.576c0-.073.01-.144.028-.212.006-.024.02-.045.028-.068.015-.043.03-.086.052-.125.015-.027.037-.048.055-.072.023-.033.044-.066.071-.094.023-.024.053-.04.08-.06.029-.025.055-.051.088-.07L10.062.28a.803.803 0 01.805 0l9.66 5.594h.002c.032.02.059.046.088.07.026.02.055.037.079.06.028.03.048.062.072.095.017.024.04.045.054.072.023.04.036.082.053.125.008.023.022.044.028.069.018.069.028.14.028.211v20.787l8.05-4.662V12.074c0-.07.01-.142.027-.21.008-.024.02-.045.029-.069.016-.042.03-.086.052-.125.015-.026.037-.048.054-.072.024-.032.044-.066.072-.094.024-.023.053-.04.079-.06.03-.025.056-.051.088-.07l9.662-5.595a.802.802 0 01.804 0l9.66 5.595c.034.02.06.045.09.068.026.02.055.039.078.061.028.03.048.063.072.095.018.024.04.046.055.072.023.04.036.083.052.125.009.024.022.045.028.07zM48.3 22.701v-9.225l-3.38 1.957-4.67 2.705v9.225l8.05-4.662zm-9.66 16.688v-9.231l-4.594 2.639-13.117 7.53v9.319L38.64 39.389zM1.611 7.976V39.39L19.32 49.645v-9.317l-9.252-5.266-.003-.002-.004-.002c-.031-.019-.057-.045-.087-.067-.025-.02-.054-.036-.076-.059l-.002-.003c-.026-.025-.044-.056-.066-.085-.02-.027-.045-.05-.06-.079l-.002-.003c-.018-.03-.029-.066-.042-.1-.013-.031-.03-.06-.038-.092-.01-.038-.012-.08-.016-.12-.004-.03-.012-.06-.012-.09V12.639L4.99 9.933 1.61 7.976zm8.855-6.06l-8.049 4.66 8.047 4.66 8.047-4.661-8.047-4.66h.002zm4.186 29.083l4.668-2.704V7.976l-3.38 1.958-4.67 2.705v20.319l3.382-1.959zM39.446 7.415l-8.047 4.66 8.047 4.66 8.047-4.66-8.047-4.66zm-.805 10.723l-4.67-2.705-3.38-1.957V22.7l4.669 2.704 3.381 1.958v-9.225zm-18.517 20.79l11.803-6.78 5.9-3.387-8.04-4.657-9.26 5.362-8.438 4.887 8.035 4.574z"/>
  </g>
  <defs>
    <clipPath id="clip0_748_1302">
      <path fill="#fff" d="M0 0H50V52H0z"/>
    </clipPath>
  </defs>
</svg>