<svg xmlns="http://www.w3.org/2000/svg" width="41" height="62" fill="none" viewBox="0 0 41 62">
  <path fill="#0044EB" d="M15.803 36.058l6.139-11.17c.442-.803 1.507-1.125 2.379-.718.871.408 1.22 1.39.778 2.193l-6.138 11.17c-.312.568-.935.895-1.58.895-.27 0-.543-.057-.799-.177-.872-.407-1.22-1.389-.779-2.193zm13.005-7.999a1.878 1.878 0 00-2.503 0 1.543 1.543 0 000 2.308l2.633 2.427-2.633 2.426a1.543 1.543 0 000 2.308c.346.319.799.478 1.252.478.453 0 .906-.16 1.251-.478l3.884-3.58a1.543 1.543 0 000-2.308l-3.884-3.58zm-14.113 3.153l-2.633-2.427 2.633-2.427a1.543 1.543 0 000-2.308 1.878 1.878 0 00-2.503 0l-3.884 3.581a1.543 1.543 0 000 2.307l3.884 3.581c.345.319.798.478 1.251.478.453 0 .906-.16 1.252-.478a1.543 1.543 0 000-2.307zM41 5.71v50.578C41 59.44 38.221 62 34.806 62H6.194C2.78 62 0 59.438 0 56.29V5.71C0 2.563 2.779 0 6.194 0h28.612C38.22 0 41 2.562 41 5.71zM11.548 3.263l1.232 2.448h15.44l1.232-2.448H11.548zM37.46 5.711c0-1.35-1.19-2.448-2.654-2.448h-1.452l-2.4 4.766c-.29.576-.916.945-1.605.945H11.65c-.689 0-1.315-.369-1.605-.945l-2.4-4.766H6.194c-1.464 0-2.654 1.098-2.654 2.448v50.578c0 1.35 1.19 2.448 2.654 2.448h28.612c1.464 0 2.654-1.098 2.654-2.448V5.711zM25.367 53.57h-9.734c-.977 0-1.77.73-1.77 1.63 0 .902.793 1.632 1.77 1.632h9.734c.977 0 1.77-.73 1.77-1.631s-.793-1.632-1.77-1.632z"/>
</svg>