<svg xmlns="http://www.w3.org/2000/svg" width="57" height="57" fill="none" viewBox="0 0 57 57">
  <g clipPath="url(#clip0_748_926)">
    <path fill="#8F9ED1" d="M57 28.5c0 1.724-.154 3.412-.447 5.05C54.17 46.883 42.516 57 28.5 57 17.94 57 8.721 51.257 3.798 42.723a28.278 28.278 0 01-2.793-6.697A28.482 28.482 0 010 28.5C0 12.76 12.76 0 28.5 0c12.991 0 23.952 8.692 27.384 20.578A28.524 28.524 0 0157 28.5z"/>
    <path fill="#F2F2F2" d="M14.492 19.843H3.996l-2.99 16.183a28.279 28.279 0 002.793 6.697h.973l1.159-6.267h5.767c7.023 0 8.91-6.305 9.363-9.402a6.425 6.425 0 00-6.569-7.211zm1.523 7.733c-.257 1.756-1.554 5.33-5.535 5.33H6.587l1.74-9.419h3.963c3.864 0 3.982 2.334 3.725 4.09zM55.885 20.578c-.892-.46-1.956-.735-3.184-.735H42.205l-4.229 22.88h5.005l1.158-6.267h5.768c3.123 0 5.231-1.248 6.647-2.905.293-1.64.447-3.327.447-5.051 0-2.749-.39-5.407-1.116-7.922zm-1.661 6.998c-.257 1.756-1.554 5.33-5.536 5.33h-3.893l1.74-9.419H50.5c3.863 0 3.982 2.334 3.725 4.09zM34.427 19.919h-6.078l1.14-6.174h-4.983l-4.229 22.88h4.984l2.432-13.157h3.185c2.114 0 3.549.453 3.247 2.416-.302 1.963-2.039 10.647-2.039 10.647h5.06s1.963-9.665 2.265-12.384c.302-2.718-2.19-4.228-4.984-4.228z"/>
  </g>
  <defs>
    <clipPath id="clip0_748_926">
      <path fill="#fff" d="M0 0H57V57H0z"/>
    </clipPath>
  </defs>
</svg>