<svg xmlns="http://www.w3.org/2000/svg" width="32" height="32" fill="none" viewBox="0 0 32 32">
  <g clipPath="url(#clip0_810_193)">
    <path fill="url(#paint0_linear_810_193)" d="M15.812 0a21.796 21.796 0 00-3.648.312c-3.23.57-3.817 1.765-3.817 3.968v2.91h7.634v.97H5.482c-2.22 0-4.162 1.333-4.77 3.87-.7 2.908-.732 4.722 0 7.759.543 2.26 1.84 3.87 4.058 3.87h2.625v-3.488c0-2.52 2.18-4.742 4.769-4.742h7.625c2.123 0 3.817-1.748 3.817-3.88V4.28c0-2.069-1.745-3.623-3.817-3.968A23.81 23.81 0 0015.812 0zm-4.129 2.34c.789 0 1.433.655 1.433 1.46 0 .801-.644 1.45-1.433 1.45a1.44 1.44 0 01-1.432-1.45c0-.805.64-1.46 1.432-1.46z"/>
    <path fill="url(#paint1_linear_810_193)" d="M24.558 8.16v3.39c0 2.628-2.228 4.84-4.769 4.84h-7.625c-2.089 0-3.817 1.787-3.817 3.88v7.269c0 2.068 1.799 3.285 3.817 3.879 2.417.71 4.734.839 7.625 0 1.922-.556 3.817-1.676 3.817-3.88V24.63h-7.625v-.97h11.443c2.218 0 3.045-1.547 3.817-3.87.797-2.392.763-4.691 0-7.76-.549-2.208-1.596-3.87-3.817-3.87h-2.866zM20.27 26.568a1.44 1.44 0 011.432 1.45c0 .805-.64 1.46-1.432 1.46-.789 0-1.433-.655-1.433-1.46 0-.802.644-1.45 1.433-1.45z"/>
  </g>
  <defs>
    <linearGradient id="paint0_linear_810_193" x1="-0.573" x2="17.034" y1="0.91" y2="15.926" gradientUnits="userSpaceOnUse">
      <stop stopColor="#5A9FD4"/>
      <stop offset="1" stopColor="#306998"/>
    </linearGradient>
    <linearGradient id="paint1_linear_810_193" x1="23.66" x2="17.345" y1="25.259" y2="16.405" gradientUnits="userSpaceOnUse">
      <stop stopColor="#FFD43B"/>
      <stop offset="1" stopColor="#FFE873"/>
    </linearGradient>
    <clipPath id="clip0_810_193">
      <path fill="#fff" d="M0 0H32V32H0z"/>
    </clipPath>
  </defs>
</svg>