<svg xmlns="http://www.w3.org/2000/svg" width="54" height="54" fill="none" viewBox="0 0 54 54">
  <path fill="#00D8FF" d="M47.75 28.526a33.077 33.077 0 00-1.575-1.886c.387-.45.756-.9 1.103-1.35 3.588-4.651 4.607-8.871 2.868-11.882-1.738-3.01-5.901-4.238-11.724-3.457-.614.083-1.24.187-1.877.311a32.34 32.34 0 00-.689-1.837C33.621 2.992 30.476 0 27 0s-6.621 2.992-8.856 8.425a32.34 32.34 0 00-.689 1.837 32.445 32.445 0 00-1.877-.31c-5.822-.782-9.986.446-11.724 3.456-1.738 3.01-.72 7.23 2.868 11.883.347.45.716.9 1.103 1.349a32.992 32.992 0 00-1.576 1.886c-3.587 4.652-4.606 8.872-2.868 11.882 1.397 2.42 4.358 3.687 8.489 3.687 1.01 0 2.091-.076 3.235-.23.737-.098 1.493-.229 2.262-.388.242.727.501 1.427.777 2.098C20.379 51.008 23.524 54 27 54s6.621-2.992 8.856-8.425c.276-.67.535-1.372.777-2.098.77.16 1.525.29 2.262.388a24.4 24.4 0 003.235.23c4.13 0 7.093-1.268 8.489-3.687 1.738-3.01.72-7.23-2.868-11.882zM41.677 12.88c2.892 0 4.936.735 5.73 2.11 1.04 1.8.08 4.85-2.633 8.368-.259.335-.531.67-.815 1.006a51.891 51.891 0 00-5.314-4.393 50.718 50.718 0 00-1.199-6.664c1.549-.286 2.97-.427 4.23-.427zM31.2 34.593a60.425 60.425 0 01-4.2 2.212 60.327 60.327 0 01-4.2-2.212 59.85 59.85 0 01-4.49-2.862A60.383 60.383 0 0118.127 27c0-1.835.08-3.596.228-5.274a60.137 60.137 0 013.972-2.502A60.03 60.03 0 0127 16.789a60.032 60.032 0 014.673 2.435 60.111 60.111 0 013.972 2.502c.148 1.678.228 3.44.228 5.274 0 1.638-.064 3.217-.183 4.73a59.827 59.827 0 01-4.49 2.863zm4.007 1.267a45.378 45.378 0 01-.764 3.818 45.472 45.472 0 01-3.657-1.24 64.637 64.637 0 004.421-2.578zm-11.993 2.578a45.44 45.44 0 01-3.657 1.24 45.4 45.4 0 01-.764-3.818 64.1 64.1 0 004.421 2.578zm-8.213-9.23a43.948 43.948 0 01-2.807-2.528 45.538 45.538 0 012.83-2.477 64.003 64.003 0 00-.023 5.006zm3.88-11.604c.212-1.261.465-2.456.751-3.579a44.32 44.32 0 013.505 1.145 63.89 63.89 0 00-4.257 2.434zm11.982-2.434c1.21-.45 2.38-.83 3.505-1.145.286 1.123.54 2.318.752 3.579a63.993 63.993 0 00-4.257-2.434zm8.113 9.033a45.538 45.538 0 012.83 2.477c-.866.853-1.805 1.699-2.807 2.529a64.116 64.116 0 00-.023-5.006zM27 3.164c2.289 0 4.72 2.911 6.457 7.836A50.662 50.662 0 0027 13.322 50.677 50.677 0 0020.543 11C22.28 6.075 24.71 3.164 27 3.164zM6.594 14.99c.794-1.376 2.837-2.11 5.73-2.11 1.26 0 2.682.141 4.231.427a50.71 50.71 0 00-1.2 6.664 51.891 51.891 0 00-5.313 4.393c-.284-.335-.556-.67-.815-1.006-2.713-3.518-3.672-6.567-2.633-8.368zm5.258 25.946c-2.892 0-4.937-.734-5.73-2.11-1.04-1.8-.08-4.85 2.633-8.367.386-.502.802-1.004 1.243-1.505a50.437 50.437 0 005.295 4.499 51.6 51.6 0 001.196 6.98c-1.708.338-3.268.503-4.637.503zM27 50.836c-2.333 0-4.814-3.026-6.557-8.125A51.627 51.627 0 0027 40.286a51.627 51.627 0 006.557 2.425c-1.743 5.099-4.224 8.125-6.557 8.125zm20.879-12.01c-1.17 2.027-5.053 2.66-10.368 1.606.538-2.178.94-4.526 1.196-6.98a50.421 50.421 0 005.294-4.498c.442.501.858 1.003 1.244 1.505 2.713 3.517 3.673 6.567 2.634 8.367z"/>
  <path fill="#00D8FF" d="M27 31.889a4.888 4.888 0 100-9.777 4.888 4.888 0 000 9.777z"/>
</svg>