<svg xmlns="http://www.w3.org/2000/svg" width="74" height="63" fill="none" viewBox="0 0 74 63">
  <path fill="#0044EB" d="M46.123 49.569c4.504 0 8.169-3.633 8.169-8.098v-8.04h5.577a7.203 7.203 0 006.93 5.208c3.97 0 7.2-3.203 7.2-7.139 0-3.936-3.23-7.139-7.2-7.139a7.203 7.203 0 00-6.93 5.208H54.29v-8.04c0-4.465-3.664-8.098-8.168-8.098h-.364V9.07h14.11a7.203 7.203 0 006.93 5.208c3.97 0 7.2-3.202 7.2-7.138C74 3.202 70.77 0 66.8 0a7.202 7.202 0 00-6.93 5.208H43.81a1.94 1.94 0 00-1.947 1.93v6.293h-9.728V7.14a1.94 1.94 0 00-1.948-1.931H14.131A7.203 7.203 0 007.201 0C3.23 0 0 3.202 0 7.139c0 3.936 3.23 7.138 7.2 7.138a7.203 7.203 0 006.931-5.208h14.11v4.362h-.365c-4.504 0-8.168 3.633-8.168 8.098v8.04h-5.577a7.203 7.203 0 00-6.93-5.208C3.23 24.361 0 27.564 0 31.5c0 3.936 3.23 7.139 7.2 7.139a7.203 7.203 0 006.931-5.208h5.577v8.04c0 4.465 3.665 8.098 8.168 8.098h.365v4.362h-14.11a7.202 7.202 0 00-6.93-5.208c-3.97 0-7.2 3.202-7.2 7.138C0 59.798 3.23 63 7.2 63a7.202 7.202 0 006.93-5.208H30.19a1.94 1.94 0 001.947-1.93v-6.293h9.728v6.292a1.94 1.94 0 001.948 1.931h16.057A7.203 7.203 0 0066.799 63C70.77 63 74 59.798 74 55.861c0-3.936-3.23-7.138-7.2-7.138a7.203 7.203 0 00-6.931 5.208h-14.11v-4.362h.364zM66.8 28.223c1.823 0 3.306 1.47 3.306 3.277 0 1.807-1.483 3.277-3.306 3.277-1.822 0-3.305-1.47-3.305-3.277 0-1.807 1.483-3.277 3.305-3.277zm0-24.361c1.823 0 3.306 1.47 3.306 3.277 0 1.807-1.483 3.277-3.306 3.277-1.822 0-3.305-1.47-3.305-3.277 0-1.807 1.483-3.277 3.305-3.277zM7.2 10.416c-1.822 0-3.305-1.47-3.305-3.277 0-1.807 1.483-3.278 3.305-3.278 1.823 0 3.306 1.47 3.306 3.278 0 1.807-1.483 3.277-3.306 3.277zm0 24.361c-1.822 0-3.305-1.47-3.305-3.277 0-1.807 1.483-3.277 3.305-3.277 1.823 0 3.306 1.47 3.306 3.277 0 1.807-1.483 3.277-3.306 3.277zm0 24.361c-1.822 0-3.305-1.47-3.305-3.277 0-1.807 1.483-3.277 3.305-3.277 1.823 0 3.306 1.47 3.306 3.277 0 1.807-1.483 3.278-3.306 3.278zm59.6-6.554c1.822 0 3.305 1.47 3.305 3.277 0 1.807-1.483 3.278-3.306 3.278-1.822 0-3.305-1.47-3.305-3.278 0-1.807 1.483-3.277 3.305-3.277zM23.602 41.471V21.529c0-2.336 1.917-4.236 4.273-4.236h18.247c2.357 0 4.274 1.9 4.274 4.236v19.942c0 2.336-1.917 4.236-4.273 4.236H27.875c-2.356 0-4.273-1.9-4.273-4.236z"/>
</svg>