<svg xmlns="http://www.w3.org/2000/svg" width="50" height="50" fill="none" viewBox="0 0 50 50">
  <g clipPath="url(#clip0_748_1179)">
    <path fill="#0078CF" d="M50 25c0 2.261-.3 4.453-.863 6.537a25 25 0 01-7.776 12.366A24.9 24.9 0 0125 50C11.193 50 0 38.807 0 25S11.193 0 25 0s25 11.193 25 25z"/>
    <path fill="#F2F2F2" d="M49.137 31.537a25 25 0 01-7.776 12.366c-.362.02-.74.029-1.134.029-5.19 0-8.075-3.244-9.509-5.678l4.706-2.827s1.601 3.402 4.602 3.402c3.002 0 4.203-1.001 4.203-3.302 0-2.803-9.706-3.803-11.207-8.605-1.5-4.803.5-11.609 7.505-11.108 4.378.313 6.84 2.463 8.072 4.03l-4.67 3.374c-1-2.9-5.103-2.9-5.904-.5-.8 2.402 1.901 3.802 6.104 5.203 2.16.72 3.896 2.047 5.008 3.616zM29.389 16.58H8.116v5.022h7.796v21.801h5.681V21.602h7.796V16.58z"/>
  </g>
  <defs>
    <clipPath id="clip0_748_1179">
      <path fill="#fff" d="M0 0H50V50H0z"/>
    </clipPath>
  </defs>
</svg>