<svg xmlns="http://www.w3.org/2000/svg" width="62" height="62" fill="none" viewBox="0 0 62 62">
  <path fill="#0044EB" d="M55.725 0H6.275A6.282 6.282 0 000 6.275v49.45A6.282 6.282 0 006.275 62h49.45A6.282 6.282 0 0062 55.725V6.275A6.282 6.282 0 0055.725 0zm3.012 55.725a3.015 3.015 0 01-3.012 3.012H6.275a3.015 3.015 0 01-3.012-3.012V16.961H53.79a1.632 1.632 0 000-3.263H3.263V6.275a3.015 3.015 0 013.012-3.012h49.45a3.015 3.015 0 013.012 3.012v49.45zM17.347 9.271c0 .9-.73 1.631-1.631 1.631H8.442a1.632 1.632 0 110-3.263h7.274c.901 0 1.632.73 1.632 1.632zm15.285 0c0 .9-.731 1.631-1.632 1.631h-7.274a1.632 1.632 0 010-3.263H31c.901 0 1.632.73 1.632 1.632zm13.646 26.085H38.45a15.716 15.716 0 00-.38-2.253h2.559c.621 0 1.188-.353 1.463-.91l4.102-8.315a1.631 1.631 0 10-2.927-1.444l-3.653 7.406H36.8c-1.37-2.427-3.443-3.948-5.802-3.948-2.358 0-4.43 1.521-5.801 3.948h-2.81l-3.653-7.405a1.631 1.631 0 10-2.927 1.443l4.102 8.315c.275.557.842.91 1.463.91h2.554c-.177.717-.304 1.47-.38 2.253h-7.823a1.632 1.632 0 000 3.263h7.823c.076.783.203 1.537.38 2.254h-2.554c-.621 0-1.188.352-1.463.91l-4.102 8.314a1.631 1.631 0 102.927 1.444l3.653-7.405h2.81c1.37 2.426 3.443 3.947 5.801 3.947 2.359 0 4.431-1.521 5.802-3.947h2.816l3.652 7.405a1.63 1.63 0 102.927-1.444l-4.102-8.315a1.631 1.631 0 00-1.463-.91H38.07c.177-.716.305-1.47.38-2.253h7.828a1.632 1.632 0 100-3.263zm-15.28 9.464c-2.02 0-4.268-3.217-4.268-7.832 0-4.616 2.249-7.833 4.267-7.833 2.019 0 4.268 3.217 4.268 7.833 0 4.615-2.249 7.832-4.268 7.832z"/>
</svg>